<svg width="1280" height="720" viewBox="0 0 1280 720" fill="none" xmlns="http://www.w3.org/2000/svg">
  <rect width="1280" height="720" rx="28" fill="#F7F4EF"/>
  <rect x="28" y="28" width="1224" height="664" rx="24" fill="#FFFDF9" stroke="#E2D8C9"/>
  <rect x="28" y="28" width="1224" height="52" rx="24" fill="#EFE6D8"/>
  <circle cx="66" cy="54" r="8" fill="#E58B7B"/>
  <circle cx="92" cy="54" r="8" fill="#E7BC62"/>
  <circle cx="118" cy="54" r="8" fill="#79B38F"/>
  <rect x="52" y="110" width="220" height="540" rx="18" fill="#2C2D33"/>
  <rect x="308" y="110" width="894" height="98" rx="18" fill="#F6EFE4"/>
  <rect x="332" y="134" width="228" height="16" rx="8" fill="#2E3E4E"/>
  <rect x="332" y="160" width="526" height="12" rx="6" fill="#937F68"/>
  <rect x="332" y="182" width="180" height="10" rx="5" fill="#B3A089"/>
  <rect x="308" y="234" width="412" height="396" rx="18" fill="#FFFCF7" stroke="#E2D8C9"/>
  <rect x="744" y="234" width="458" height="188" rx="18" fill="#FFFCF7" stroke="#E2D8C9"/>
  <rect x="744" y="442" width="458" height="188" rx="18" fill="#FFFCF7" stroke="#E2D8C9"/>
  <rect x="336" y="262" width="160" height="12" rx="6" fill="#2E3E4E"/>
  <rect x="336" y="292" width="344" height="14" rx="7" fill="#E5DACB"/>
  <rect x="336" y="320" width="312" height="14" rx="7" fill="#E5DACB"/>
  <rect x="336" y="348" width="332" height="14" rx="7" fill="#E5DACB"/>
  <rect x="772" y="262" width="134" height="12" rx="6" fill="#2E3E4E"/>
  <rect x="772" y="292" width="394" height="14" rx="7" fill="#E5DACB"/>
  <rect x="772" y="470" width="162" height="12" rx="6" fill="#2E3E4E"/>
  <rect x="772" y="500" width="392" height="14" rx="7" fill="#E5DACB"/>
  <text x="336" y="594" fill="#2E3E4E" font-family="Arial, sans-serif" font-size="34" font-weight="700">Task Detail</text>
  <text x="336" y="632" fill="#937F68" font-family="Arial, sans-serif" font-size="20">Business goal, test cases, linked prompts, and best prompt signals in one place.</text>
</svg>
