<svg width="387" height="481" viewBox="0 0 387 481" fill="none" xmlns="http://www.w3.org/2000/svg">
<path d="M97.51 6.16278C100.81 4.42278 106.44 2.34278 110.01 1.55278C113.58 0.752782 119.32 0.0627822 122.76 0.0027822C126.2 -0.0472178 132.16 0.582782 136.01 1.40278C139.86 2.22278 146.27 4.39278 150.26 6.20278C154.25 8.02278 159.99 11.3428 163.01 13.5728C166.03 15.8128 171.03 20.2828 174.11 23.5228C177.19 26.7528 181.73 32.5528 184.2 36.4028C186.67 40.2528 190.32 47.2228 192.31 51.9028C194.31 56.5828 196.89 64.2228 198.05 68.9028C199.21 73.5828 200.56 80.5528 201.05 84.4028C201.54 88.2528 201.96 96.1328 201.97 101.903C201.98 107.673 201.55 117.353 201.02 123.403C200.48 129.453 198.66 143.403 196.98 154.403C195.29 165.403 193.25 180.023 192.43 186.903C191.62 193.773 190.47 203.903 189.88 209.403C189.28 214.903 188.51 228.393 188.15 239.393C187.57 257.373 187.33 259.403 185.76 259.643C184.8 259.783 183.59 259.113 183.08 258.153C182.57 257.193 179.4 245.833 176.04 232.903C172.67 219.973 168.04 203.773 165.75 196.903C163.46 190.023 158.81 178.773 155.4 171.903C152 165.023 146.18 155.353 142.47 150.403C138.77 145.453 132.76 138.103 129.12 134.063C125.49 130.023 115.8 120.793 107.6 113.563C99.4 106.323 89.81 97.2528 86.29 93.4028C82.1 88.8228 78.34 83.2928 75.43 77.4028C72.01 70.5028 70.69 66.4228 69.78 59.9028C68.76 52.6128 68.83 50.2628 70.28 43.4028C71.21 39.0028 73.44 32.4828 75.24 28.9128C77.21 25.0028 81.1 19.8128 85.01 15.8728C88.58 12.2728 94.21 7.90278 97.51 6.16278Z" fill="#006B42"/>
<path d="M291.51 25.5328C294.26 24.6328 299.21 23.4728 302.51 22.9528C305.81 22.4328 312.78 22.1928 318.01 22.4228C323.24 22.6528 330.21 23.5228 333.51 24.3728C336.81 25.2128 343.11 27.7028 347.51 29.9028C351.91 32.1028 358.23 36.2628 361.57 39.1528C364.9 42.0428 369.31 46.4328 371.37 48.9028C373.44 51.3728 377.08 57.4528 379.47 62.4028C381.86 67.3528 384.37 73.8728 385.04 76.9028C385.72 79.9328 386.26 87.1228 386.25 92.9028C386.23 100.553 385.62 105.713 383.98 111.903C382.74 116.583 380.41 123.333 378.81 126.903C377.2 130.473 373.33 137.193 370.2 141.823C367.07 146.453 360.46 154.503 355.51 159.713C350.56 164.933 341.98 173.073 336.44 177.803C330.9 182.533 318.53 192.743 308.94 200.483C299.35 208.223 286.17 219.703 279.63 225.983C273.1 232.263 265.63 240.103 263.02 243.403C260.41 246.703 256.03 252.773 253.27 256.903C250.52 261.023 246.57 267.773 244.49 271.903C242.42 276.023 238.95 284.353 236.79 290.403C234.63 296.453 231.79 305.903 230.5 311.403C229.2 316.903 227.45 325.673 226.61 330.903C225.77 336.133 224.42 346.703 223.62 354.403C222.81 362.103 221.89 372.113 221.58 376.653C221.22 381.863 221.38 384.903 222.01 384.903C222.56 384.903 228.02 379.163 234.14 372.153C240.26 365.143 248.33 355.133 252.06 349.903C255.8 344.673 261.77 334.773 265.34 327.903C268.9 321.023 273.48 310.903 275.52 305.403C277.55 299.903 280.93 288.653 283.04 280.403C285.14 272.153 287.88 262.923 289.12 259.903C290.36 256.883 292.82 252.153 294.59 249.403C296.36 246.653 299.77 242.633 302.16 240.463C304.55 238.293 308.76 235.483 311.51 234.223C314.26 232.963 318.99 231.493 322.01 230.973C325.61 230.343 329.76 230.363 334.01 231.033C337.59 231.593 342.09 232.723 344.01 233.543C345.93 234.353 349.76 236.723 352.51 238.803C355.26 240.883 358.75 244.343 360.26 246.493C361.78 248.643 364.14 253.443 365.51 257.153C367.2 261.723 368 265.923 367.99 270.153C367.98 273.593 367.26 279.103 366.39 282.403C365.52 285.703 363.55 290.883 362.02 293.903C360.49 296.923 357.22 302.103 354.75 305.403C352.28 308.703 347.39 314.063 343.88 317.313C340.38 320.563 333.91 325.953 329.51 329.293C325.11 332.623 311.84 341.603 300.01 349.233C288.19 356.873 273.56 366.843 267.51 371.393C261.46 375.943 252.51 383.663 247.62 388.533C242.74 393.413 235.68 401.673 231.94 406.903C228.21 412.133 222.68 421.353 219.66 427.403C216.64 433.453 212.34 444.023 210.12 450.903C207.89 457.773 205.38 466.663 204.54 470.653C203.42 475.983 202.41 478.303 200.76 479.423C199.04 480.583 197.87 480.703 195.76 479.923C194.15 479.323 192.83 477.963 192.57 476.653C192.33 475.413 191.63 467.423 191.02 458.903C190.4 450.383 189.03 437.323 187.98 429.903C186.93 422.483 184.47 410.773 182.5 403.903C180.54 397.023 176.98 387.353 174.59 382.403C172.2 377.453 167.6 370.093 164.37 366.033C161.15 361.983 155.81 356.663 152.51 354.203C149.21 351.743 143.81 348.433 140.51 346.833C137.21 345.243 131.58 343.143 128.01 342.173C122.87 340.773 117.64 340.413 103.01 340.443C89.84 340.463 81.05 341.023 72.51 342.373C65.72 343.453 55.52 344.273 49.01 344.263C41.02 344.253 35.68 343.713 31.51 342.493C28.21 341.523 23.26 339.463 20.51 337.913C17.76 336.363 13.6 333.023 11.26 330.493C8.92 327.973 5.81 323.543 4.33 320.653C2.23 316.523 1.57 313.593 1.24 306.903C0.9 300.053 1.22 297.333 2.87 292.903C4 289.883 6.44 285.313 8.28 282.763C10.12 280.213 14.3 276.353 17.57 274.193C20.84 272.033 25.76 269.303 28.51 268.143C31.26 266.973 37.79 265.323 43.01 264.463C48.24 263.613 55.32 262.913 58.76 262.903C62.2 262.903 70.07 263.603 76.26 264.463C82.47 265.323 92.21 267.583 98.01 269.503C103.78 271.423 112.11 274.723 116.51 276.843C120.91 278.963 128.78 283.553 134.01 287.043C139.23 290.543 147.72 297.453 152.88 302.403C158.04 307.353 165.13 315.223 168.64 319.903C172.14 324.583 177.7 333.803 180.99 340.403C184.28 347.003 188.07 355.773 189.43 359.903C190.79 364.023 193.02 371.903 194.39 377.403C195.76 382.903 197.47 390.893 198.19 395.163C198.92 399.433 199.85 402.913 200.26 402.913C200.67 402.903 201.15 400.093 201.31 396.653C201.48 393.213 201.72 382.523 201.85 372.903C201.98 363.273 201.6 340.773 201.02 322.903C200.43 305.023 199.94 274.423 199.92 254.903C199.89 229.903 200.34 214.673 201.45 203.403C202.31 194.603 203.72 182.453 204.59 176.403C205.45 170.353 207.7 158.203 209.58 149.403C211.47 140.603 214.53 128.453 216.4 122.403C218.26 116.353 221.47 106.903 223.52 101.403C225.58 95.9028 229.29 87.3528 231.78 82.4028C234.26 77.4528 238.23 70.4728 240.6 66.9028C242.97 63.3328 247.52 57.2928 250.71 53.4928C253.9 49.6928 260.11 43.7228 264.51 40.2328C268.91 36.7428 275.66 32.3728 279.51 30.5228C283.36 28.6728 288.76 26.4328 291.51 25.5328Z" fill="#006B42"/>
<path d="M22.01 118.563C25.9748 115.901 29.44 114.483 33.01 113.223C38.04 111.463 42.8508 110.942 49.26 110.923C56.1669 110.902 60.52 111.403 66.76 113.483C71.02 114.903 77.44 118.003 81.01 120.373C84.58 122.733 90.17 127.533 93.41 131.033C96.66 134.543 100.99 139.883 103.03 142.903C105.07 145.923 108.88 152.673 111.5 157.903C114.12 163.133 118.71 173.703 121.7 181.403C124.69 189.103 128.94 199.903 131.15 205.403C133.36 210.903 137.73 220.353 140.87 226.403C144.01 232.453 149.13 241.223 152.26 245.903C155.38 250.583 160.46 257.553 163.54 261.403C166.61 265.253 173.72 273.523 179.32 279.773C184.92 286.033 189.96 291.763 190.51 292.503C191.21 293.453 191.06 294.343 190.01 295.443C188.65 296.873 187.5 296.193 178.01 288.373C172.24 283.613 161.89 275.973 155.01 271.393C148.14 266.803 137.78 260.573 132.01 257.543C126.24 254.503 117.69 250.383 113.01 248.373C108.33 246.373 93.71 240.663 80.51 235.693C67.31 230.723 52.46 224.633 47.51 222.163C42.56 219.693 35.58 215.743 32.01 213.393C28.44 211.033 22.11 205.573 17.96 201.253C12.72 195.803 9.28 191.103 6.72 185.903C4.7 181.783 2.36 175.703 1.52 172.403C0.68 169.103 0 163.473 0 159.903C0 156.333 0.71 150.703 1.57 147.403C2.43 144.103 4.34 139.193 5.82 136.483C7.3 133.783 9.80369 130.131 13.01 126.593C16.1728 123.102 18.0991 121.188 22.01 118.563Z" fill="#006B42"/>
</svg>
